/* XPM */
static char * micro_wn_xpm[] = {
"32 27 2 1",
" 	c None",
".	c #000000",
"                                ",
"                  ......        ",
"                ..    ...       ",
"  ..  .        ...    . ..      ",
" ...  ..     . ..  .     ..     ",
" ...  ...    ..... .     ...    ",
"  ..  ..     ..... .     ....   ",
"  ..  ..   . .......     .      ",
"  .......... ............  . .  ",
"   .... ... .......... ... . .  ",
"   .... . . ..... .... .. ....  ",
"   . .       ..      ..    . .. ",
"              .     ...... . .  ",
"              ...... .  . ....  ",
"              . ... .   .  . .  ",
"             ..   ..... .  . .  ",
"             .       ......  .  ",
"            .         ..  ....  ",
"           ..             .  .  ",
"           ..            ..  .  ",
"          ..           ...  . . ",
"         ..            .  ... . ",
"         .             .   . .. ",
"        ..              . .  .. ",
"        .               . ....  ",
"                         .. .   ",
"                                "};
